<svg width="16" height="20" viewBox="0 0 16 20" fill="none" xmlns="http://www.w3.org/2000/svg">
<path d="M15.8338 0.397607L13.2244 0C13.1439 0 13.0633 2.17865e-05 13.0633 0.073044L11.9519 1.50916C11.8948 1.60412 11.8693 1.71498 11.8794 1.82555C11.8794 1.90669 11.7989 2.06897 11.7183 1.98784L10.8485 1.75256C10.6874 1.75256 10.5344 1.75256 10.4539 1.90672L6.89407 6.53147C6.81353 6.6126 6.73303 6.61258 6.58001 6.61258L5.23499 5.97163C5.17662 5.93221 5.10794 5.91116 5.03767 5.91116C4.96741 5.91116 4.89873 5.93221 4.84036 5.97163L4.12356 6.4503C4.0656 6.49078 3.99677 6.5125 3.92625 6.5125C3.85572 6.5125 3.78689 6.49078 3.72893 6.4503L3.41487 6.28802C3.36282 6.26464 3.30645 6.25243 3.24946 6.25217C3.19246 6.2519 3.13607 6.26359 3.0838 6.28648C3.03153 6.30938 2.98455 6.34301 2.94587 6.38518C2.90719 6.42735 2.87768 6.47717 2.85916 6.53147L2.62556 7.64302C2.59526 7.76112 2.60139 7.88572 2.64311 8.00022C2.68484 8.11472 2.7602 8.21369 2.85916 8.28398L3.49539 8.68153L5.15447 9.7201L5.95985 10.1988C6.07124 10.2628 6.19998 10.2895 6.32739 10.2749C6.45481 10.2603 6.5743 10.2052 6.66859 10.1177L8.01356 8.92493C8.13426 8.85134 8.27673 8.82265 8.41625 8.84382L8.81088 9.07909C8.9639 9.16023 9.12497 9.16025 9.20551 8.99798L9.91425 8.36509C9.96342 8.3118 10.0279 8.27535 10.0987 8.2608C10.1694 8.24625 10.243 8.25436 10.3089 8.28398L11.3398 8.7627C11.5009 8.84384 11.6539 8.76267 11.815 8.68153L12.2901 8.0487L15.8499 3.42395C16.0029 3.18055 15.9304 2.86412 15.6083 2.86412L14.8029 2.70996C14.6418 2.70996 14.5693 2.46655 14.6418 2.30428L15.9143 0.795164C16.0754 0.632892 15.9868 0.397607 15.8338 0.397607Z" fill="white"/>
<path d="M3.99469 9.72001C3.91415 9.63888 3.8336 9.71999 3.8336 9.80113L4.22823 10.8316V11.075L3.91417 12.4299C3.90898 12.4727 3.91354 12.5162 3.92749 12.5569C3.94145 12.5977 3.96441 12.6348 3.99469 12.6652L4.93697 13.3873C4.98326 13.4228 5.03986 13.4421 5.09806 13.4421C5.15626 13.4421 5.21285 13.4228 5.25914 13.3873L6.28199 12.5111C6.31381 12.4804 6.35195 12.4572 6.39373 12.4432C6.43551 12.4292 6.47988 12.4246 6.5236 12.4299L7.62697 12.2677C7.70751 12.2677 7.70751 12.1865 7.62697 12.1054L3.99469 9.72001Z" fill="white"/>
<path d="M3.64841 13.144C3.63494 13.1256 3.61733 13.1106 3.59704 13.1002C3.57676 13.0899 3.55435 13.0845 3.53161 13.0845C3.50888 13.0845 3.48647 13.0899 3.46619 13.1002C3.4459 13.1106 3.42834 13.1256 3.41487 13.144L2.60948 13.5416C2.58812 13.5416 2.56762 13.5501 2.55251 13.5653C2.53741 13.5806 2.52892 13.6012 2.52892 13.6227L0.789309 17.9229H0.869828L1.26446 17.7688V17.8499L0 19.9189C0 20 2.16261e-05 20 0.0725061 20L4.50212 15.4564C4.58265 15.4564 4.58263 15.3753 4.58263 15.2941L4.6632 14.1014C4.6632 14.0203 4.66317 13.9392 4.58263 13.9392L3.64841 13.144Z" fill="white"/>
</svg>
